<?xml version="1.0" encoding="utf-8"?>
<svg viewBox="0 0 414 413" xmlns="http://www.w3.org/2000/svg">
  <path d="M87.13 193.99c-.065.447-.13.893-.356 2.033-.043 9.123.074 17.553.19 25.984.003.757.006 1.513.043 3.055 1.647 7.566 3.26 14.347 4.872 21.13 0 0 .02.437.092.98.698 1.998 1.324 3.454 1.95 4.91 0 0 .057-.091.02.3.64 1.837 1.319 3.284 1.997 4.73 0 0 .076.445.169.965.625 1.444 1.157 2.367 1.689 3.291 0 0 .048.36.156.789.423.895.74 1.361 1.055 1.827 0 0-.01.014-.008.313.339.758.678 1.218 1.016 1.678 0 0-.018.022.001.31.357.74.694 1.191 1.032 1.643 0 0-.051.047-.002.323.301.532.553.79.805 1.046 0 0 .075.39.207.8.375.632.618.854.86 1.076.194.515.386 1.03.861 2.034a330.294 330.294 0 0 0 4.145 5.878s.073-.064.074.235c.271.558.541.818.811 1.078 0 0 .1.35.26.714.307.692.558.877.914.92 0 0 .02-.03.05.248.299.518.567.757.836.997 0 0 .11.391.347.842 2.098 2.565 3.961 4.68 5.824 6.794.173.287.347.573.806 1.224.57.545.853.724 1.136.903 1.438 1.578 2.875 3.156 4.684 5.137.677.568.982.734 1.287.9 0 0 .038-.073.089.198.344.437.637.603.93.77 0 0 .026-.046.088.213.355.42.648.582.94.744l.12.311c2.982 2.54 5.845 4.767 8.708 6.993.115.297.319.51.935.936.638.417.953.535 1.268.652.448.373.896.746 1.75 1.445.89.552 1.374.778 1.858 1.005 0 0 .1-.192.21.176.794.715 1.475 1.062 2.156 1.408 0 0 .238.246.61.559 2.373 1.374 4.376 2.435 6.379 3.496 0 0 .24.223.613.511 1.578.824 2.782 1.36 3.987 1.895 0 0 .053-.024.22.201a3.46 3.46 0 0 0 1.153.462s.028-.054.212.229c1.416.723 2.647 1.163 3.879 1.603 0 0 .017.081.274.318 3 1.166 5.742 2.095 8.484 3.024 0 0 .027-.007.268.246 4.682 1.526 9.068 3.068 13.578 4.02 12.825 2.71 25.761 3.817 38.82 1.754.645.003 1.29.006 2.673-.03 6.62-1.332 12.499-2.627 18.378-3.922.34-.04.679-.08 1.629-.21 3.855-1.324 7.1-2.56 10.344-3.796 28.2-10.951 49.097-30.145 63.643-56.471 7.491-13.56 11.791-28.184 14.06-43.74h22.903c-1.662 43.644-34.705 104.644-101.323 125.886-66.234 21.119-138.875-7.319-173.037-67.502-33.886-59.697-19.86-130.24 17.602-170.167l17.16 15.524c-15.86 18.603-25.475 39.69-29.342 64.125-.085 1.154-.063 1.6-.042 2.047z" transform="matrix(1, 0, 0, 1, 3.552713678800501e-15, 3.552713678800501e-15)" style="fill: rgb(8, 168, 157);"/>
  <path d="M174 381.874c24.964 5.622 49.889 4.975 74.785-.446 1.605-.35 3.208-.707 5.494-1.21l4.142 23.62c-70.802 14.536-133.784.029-186.12-49.82C19.354 303.59 1.647 240.814 13.708 168.363l23.171 4.95c-10.126 59.885 3.866 112.669 45.676 157.974 2.042 1.99 3.666 3.514 5.29 5.037.46.536.922 1.07 1.744 1.956.68.528.999.707 1.317.885 0 0 .021-.09.06.181.354.429.669.587.984.745 0 0 .032-.077.077.194.348.43.652.588.956.745 0 0 .016-.03.13.29 3.316 2.84 6.52 5.358 9.723 7.877 0 0 .15-.159.222.204 3.3 2.519 6.527 4.674 9.754 6.829 0 0 .1-.143.138.155.367.42.697.54 1.027.662 0 0 .015-.051.173.254 2.72 1.77 5.283 3.236 7.845 4.702 0 0 .004-.003.206.275 4.005 2.17 7.808 4.063 11.611 5.955 0 0 .128-.167.168.122.364.351.687.413 1.01.475 0 0 .348.258.77.537 1.687.741 2.952 1.203 4.217 1.664 0 0 .017-.033.234.25 4.403 1.773 8.59 3.264 12.776 4.755 0 0 .18.23.596.463 2.755.907 5.093 1.58 7.432 2.254.4.119.8.238 1.78.588 2.46.642 4.341 1.054 6.223 1.465.426.116.853.231 1.841.566 1.422.314 2.282.408 3.14.502z" transform="matrix(1, 0, 0, 1, 3.552713678800501e-15, 3.552713678800501e-15)" style="fill: rgb(8, 168, 157);"/>
  <path d="M197.428 33.244c-37.721 3.167-71.127 16.12-99.786 40.21-10.14 8.523-19.06 18.496-28.99 28.251l-18.5-12.841c29.04-37.42 65.816-62.317 111.347-73.69 44.092-11.013 87.079-7.09 129.395 11.008L278.22 46.487c-25.916-10.748-52.668-14.874-80.792-13.243z" transform="matrix(1, 0, 0, 1, 3.552713678800501e-15, 3.552713678800501e-15)" style="fill: rgb(8, 168, 157);"/>
  <path d="M399.655 145.387c17.4 54.573 13.39 107.108-12.966 157.573-5.516 10.56-12.917 20.138-19.504 30.132-.793 1.202-1.93 2.176-3.273 3.658l-16.763-15.727c43.978-59.14 50.885-122.184 21.679-189.729l20.23-12.254c3.653 9.084 7.049 17.533 10.597 26.347z" transform="matrix(1, 0, 0, 1, 3.552713678800501e-15, 3.552713678800501e-15)" style="fill: rgb(8, 168, 157);"/>
  <path d="M295.806 89.2c17.688 12.745 31.705 28.3 42.626 47.37l-19.303 12.903c-30.726-48.72-74.362-69.763-131.674-62.539-.415-7.13-.99-14.071-1.026-21.015-.005-.96 2.57-2.612 4.093-2.805 38.296-4.847 73.337 3.697 105.284 26.085z" transform="matrix(1, 0, 0, 1, 3.552713678800501e-15, 3.552713678800501e-15)" style="fill: rgb(8, 168, 157);"/>
  <path d="m199.062 270.071 1.921-17.17c-11.63-3.103-21.39-8.878-27.7-19.457 2.873 1.117 6.663 1.961 7.759 4.152 3.745 7.492 10.958 9.634 17.63 12.162 3.54 1.342 4.306 2.334 3.753 5.838-.457 2.89.228 5.96.407 8.95l2.087-.161c0-1.738-.448-3.636.101-5.179.891-2.505 1.862-5.793 3.839-6.908 2.864-1.614 6.755-1.27 10.029-2.319 8.583-2.748 18.245-3.862 22.586-13.683.186-.42.72-.675 1.051-1.044 4.658-5.19 7.863-10.982 7.89-18.334 1.97-5.463 3.073-10.807-.394-16.313 1.8-4.32-.464-6.604-2.597-9.822-4.77-7.194-8.945-14.534-18.045-16.94-.304-.08-.688-.23-.835-.471-3.18-5.166-8.53-4.842-13.815-5.672-3.429-.09-6.58.101-10.133.293-2.138.33-3.87.66-5.998 1.003-4.452 1.431-8.512 2.851-12.926 4.396l-3.891-3.152c.552 3.515.885 5.636 1.19 8.077-.35 1.104-.67 1.89-1.236 2.674-.244 0-.733 0-1.096.005-.976.195-1.772.2-2.178.601-6.856 6.76-10.12 15.085-10.452 24.61-.194 5.57 1.247 11.521-4.367 15.634-3.991.312-7.72.439-11.243 1.352-2.867.744-5.151 1.63-7.475-1.247-5.139-6.366-13.907-4.822-16.997 2.825-2.209 5.466-1.2 7.765 5.1 11.784 2.465 1.572 4.523 4.306 8.052 2.034 3.647-2.347 7.326-4.544 5.95-10.589 4.172-1.103 8.258-2.051 12.251-3.295 1.997-.622 3.825-1.783 6.114-2.653 1.991.38 3.68.513 5.173 1.125.86.352 1.884 1.416 1.996 2.27.334 2.538.253 5.13.333 7.702l-5.463-8.814c-4.83 1.27-10.014 2.361-14.964 4.115-1.38.49-2.31 2.834-3.025 4.507-2.091 4.9-5.587 7.778-10.949 8.144-5.284.36-10.092-2.391-12.212-6.992-2.25-4.883-1.49-9.448 1.887-13.53 4.315-5.213 12.294-6.07 17.375-1.276 2.67 2.518 4.868 2.628 7.942 1.615 3.926-1.294 7.965-2.24 11.181-3.125 1.146-8.03 1.147-15.877 3.578-22.882 2.435-7.016 7.296-13.19 11.55-20.52-2.151-2.97-4.826-7.192-8.114-10.864-.91-1.017-3.788-.926-5.516-.45-10.354 2.858-20.472-.152-26.94-8.308-6.065-7.648-6.922-18.647-2.123-27.264 6.647-11.934 22.006-16.173 33.725-9.307 12.198 7.145 15.969 22.796 8.348 34.736-.89 1.394-1.915 2.702-3.195 4.495l9.946 13.78c4.957-1.76 9.368-3.736 13.984-4.893 18.18-4.559 38.19 3.916 47.492 20.44 2.268 4.027 4.289 4.76 8.087 2.818 1.76-.9 3.712-1.46 5.621-2.023 5.275-1.555 9.785-2.948 10.682-10.113.776-6.202 7.526-9.89 13.972-9.787 6.417.104 11.904 4.188 13.866 10.32 1.917 5.992-.295 13.013-5.212 16.545-5.428 3.9-12.877 4.448-17.58-.025-3.795-3.611-7.029-3.276-10.984-1.386-.148.07-.324.082-.48.14-3.898 1.434-9.085 1.843-11.297 4.621-1.875 2.354-.247 7.448-.279 11.329-.094 11.641-4.342 21.714-12.195 30.798 8.625 9.656 17.06 19.25 25.755 28.602.847.91 3.296.509 4.987.426 5.516-.272 10.349 2.775 12.11 7.79 1.737 4.948.14 10.239-4.035 13.364-4.278 3.203-10.125 3.178-14.37-.188-4.13-3.274-4.83-7.64-4.026-12.599.252-1.55.199-3.746-.704-4.794-8.033-9.325-16.288-18.459-24.751-27.955-8.203 5.281-16.817 8.86-26.639 8.77-.797-.007-2.115 1.891-2.327 3.06-.71 3.923-1.395 7.923-1.313 11.878.032 1.554 1.806 3.554 3.318 4.515 7.246 4.606 10.864 12.31 9.243 20.5-1.445 7.297-7.705 13.327-15.262 14.702-7.942 1.444-15.813-2.248-19.926-9.348-6.55-11.309.213-25.303 13.903-27.8.427.078.497.162.274.418-4.357 3.506-8.505 6.739-12.607 10.028-.486.39-.841 1.051-1.053 1.658-2.534 7.241.936 17.039 7.398 20.99 8.322 5.086 20.746.824 24.377-8.525 1.284-3.306 3.413-6.816.6-10.36-3.151-3.972-6.498-7.788-9.696-11.724-1.058-1.302-1.977-2.729-2.849-4.166-.586-.966-.977-2.05-1.56-3.307-1.435 1.823-2.381 3.026-3.344 4.208a2.788 2.788 0 0 1-.045-.065M139.6 145.056c.464.314.927.629 1.374 1.748-1.517 3.762-1.292 6.886 2.865 8.905 4.022 1.954 7.793 5.377 11.948 5.876 5.735.69 11.728-.758 17.637-1.293-.133-2.04-.271-4.153.334-6.287 1.49-1.144 3.528-1.986 4.357-3.494 1.635-2.977 2.601-6.321 3.863-10.34-1.32-3.727-2.642-7.454-4.068-11.851-1.631-1.113-3.263-2.226-4.909-4.084-1.666-1.415-3.333-2.829-5.337-4.878-1.553-.456-3.105-.912-5.074-1.888-.862-.16-1.723-.318-2.59-.47 0 0 .006-.005-.176-.34-.283.11-.566.22-1.43.579-.79.252-1.583.503-2.6.317-.203-.274-.468-.459-1.529-.474-1.471.643-3.182 1-4.369 1.985-3.415 2.836-6.618 5.927-10.555 9.277-.45 1.886-.902 3.772-1.354 6.317 0 .439 0 .877-.775 1.501l-.924 9.146a44.49 44.49 0 0 1 3.312-.252m156.576 30.62c-4.74-4.908-12.409-7.433-15.669-5.012l.25 3.64c-4.073-.155-6.548 1.391-7.965 5.005-1.276 3.256-3.026 6.326-4.716 9.784.041.018 1.08.916 1.694.685 3.88-1.455 5.876-.19 8.678 3.017 1.973 2.26 7.398 3.231 10.604 2.34 7.523-2.093 11.412-11.03 7.124-19.459M176.07 162.721l-1.673.121c.866 2.353 1.761 4.661 5.633 3.684-1.509-1.437-2.5-2.381-3.96-3.805m4.42 7.144 1.03-1.172-1.63-.426c0 .491 0 .982.6 1.598z" transform="matrix(1, 0, 0, 1, 3.552713678800501e-15, 3.552713678800501e-15)" style="fill: rgb(8, 168, 157);"/>
  <path d="M221.98 332.157c-12.557 2.152-25.493 1.045-38.318-1.664-4.51-.953-8.896-2.495-13.578-4.035 3.575.36 7.53.547 11.182 1.693 13.16 4.132 26.676 4 40.714 4.006zM87.264 221.715c-.416-8.139-.533-16.569-.45-25.354.521 4.338.992 9.029 1.114 13.728.098 3.772-.227 7.555-.664 11.626zM91.932 245.75c-1.666-6.34-3.278-13.122-4.833-20.32a476.304 476.304 0 0 1 4.833 20.32zM243.07 328.207c-5.416 1.382-11.296 2.677-17.606 3.907-.003-.694.355-1.804.865-1.879 5.412-.8 10.848-1.434 16.741-2.028z" transform="matrix(1, 0, 0, 1, 3.552713678800501e-15, 3.552713678800501e-15)" style="fill: rgb(8, 168, 157);"/>
  <path d="M133.86 367.84c-3.85-1.5-7.653-3.391-11.659-5.56 4.07.873 9.258.02 11.658 5.56zM152.935 375.68c-4.134-1.135-8.32-2.626-12.737-4.385 4.074 1.165 8.379 2.597 12.737 4.385z" transform="matrix(1, 0, 0, 1, 3.552713678800501e-15, 3.552713678800501e-15)" style="fill: rgb(8, 168, 157);"/>
  <path d="M169.816 325.842c-2.742-.545-5.484-1.474-8.451-2.666 2.667.586 5.558 1.434 8.45 2.666z" transform="matrix(1, 0, 0, 1, 3.552713678800501e-15, 3.552713678800501e-15)" style="fill: rgb(8, 168, 157);"/>
  <path d="M160.964 378.416c-2.287-.337-4.625-1.01-7.236-1.942 2.214.363 4.7.984 7.236 1.942zM87.883 335.925c-1.661-1.124-3.285-2.647-5.04-4.481 3.093-.608 4.978.678 5.04 4.481z" transform="matrix(1, 0, 0, 1, 3.552713678800501e-15, 3.552713678800501e-15)" style="fill: rgb(8, 168, 157);"/>
  <path d="M168.92 380.44c-1.783-.045-3.664-.457-5.809-1.117 1.728.085 3.718.418 5.808 1.118z" transform="matrix(1, 0, 0, 1, 3.552713678800501e-15, 3.552713678800501e-15)" style="fill: rgb(8, 168, 157);"/>
  <path d="M173.945 381.554c-.803.226-1.663.132-2.752-.197.746-.198 1.721-.16 2.752.197z" transform="matrix(1, 0, 0, 1, 3.552713678800501e-15, 3.552713678800501e-15)" style="fill: rgb(8, 168, 157);"/>
  <path d="M97.86 261.003c-.596-.559-1.128-1.482-1.64-2.73.581.572 1.143 1.468 1.64 2.73zM143.955 313.592c-.631-.01-1.312-.357-2.126-.966.604.035 1.34.333 2.126.966zM141.721 312.026c-.566.091-1.05-.135-1.654-.607.498-.068 1.117.11 1.654.607zM101.04 267.633c-.33-.157-.667-.608-1.01-1.35.33.158.667.606 1.01 1.35zM100.014 265.676c-.337-.161-.676-.62-1.008-1.38.34.162.673.622 1.008 1.38zM87.333 193.85c-.224-.307-.246-.753-.144-1.515.199.248.273.812.144 1.515zM99.016 263.689c-.325-.171-.64-.637-.947-1.394.325.173.64.636.947 1.394z" transform="matrix(1, 0, 0, 1, 3.552713678800501e-15, 3.552713678800501e-15)" style="fill: rgb(8, 168, 157);"/>
  <path d="M197.96 270.953c.167-.29.404-.5.89-.775.212-.107.242-.063.126.159-.33.474-.595.647-.912.74l-.104-.124z" transform="matrix(1, 0, 0, 1, 3.552713678800501e-15, 3.552713678800501e-15)" style="fill: rgb(8, 168, 157);"/>
  <path d="M172.95 233.098c-.134-2.52-.053-5.113-.387-7.652-.112-.853-1.136-1.917-1.996-2.27-1.493-.611-3.182-.744-5.427-1.127-.808-.05-.977-.052-1.147-.053 5.263-4.268 3.822-10.22 4.016-15.79.332-9.524 3.596-17.85 10.452-24.609.406-.4 1.202-.406 2.178-.223.363 1.126.364 1.881.143 2.799-.061.61.099 1.059.258 1.506a39.427 39.427 0 0 1 2.247-1.822c.621-.8.949-1.453 1.276-2.106l-2.583-.76c.32-.785.641-1.57 1.37-2.664 1.23.337 1.968 1.294 2.898 1.546 1.09.296 3.358.103 3.382-.092.68-5.476 5.031-4.666 8.565-4.972l.797-5.824c1.733-.331 3.466-.662 5.617-.592 3.034 3.81 6.298 3.545 10.398-.41 5.007.547 10.357.223 13.537 5.389.147.24.531.391.835.472 9.1 2.405 13.275 9.745 18.045 16.939 2.133 3.218 4.396 5.503 2.223 9.829-2.99.397-5.6.397-7.939.397.323 2.496 1.993 6.482.79 7.752-3.84 4.063-.981 6.228.46 8.252h7.065c.365 7.257-2.84 13.049-7.498 18.24-.33.368-.865.623-1.05 1.043-4.342 9.821-14.004 10.935-22.587 13.683-3.274 1.049-7.165.705-10.03 2.32-1.976 1.114-2.947 4.402-3.838 6.907-.549 1.543-.101 3.44-.101 5.179l-2.087.162c-.179-2.99-.864-6.061-.407-8.951.553-3.504-.212-4.496-3.753-5.838-6.672-2.528-13.885-4.67-17.63-12.162-1.096-2.191-4.886-3.035-7.807-4.494-.367.002-.232-.055-.285-.004zM173.015 154.026l.409 6.266c-5.91.535-11.902 1.982-17.637 1.293-4.155-.5-7.926-3.922-11.948-5.876-4.157-2.019-4.382-5.143-2.473-9.39 3.054-5.786 1.419-10.919-3.378-12.317.451-1.886.902-3.772 1.812-5.533 1.401.697 2.811 1.985 3.21 1.725 2.582-1.687 7.525-1.559 5.046-7.47 2.49.458 4.045.782 5.613 1.025 3.166.492 6.872-3.48 6.336-6.757.862.16 1.723.319 2.791 1.15.702 2.025 1.198 3.379 1.693 4.733l3.513-2.882c1.666 1.414 3.333 2.828 4.81 4.889-1.424 1.073-2.659 1.499-3.894 1.925l1.684 2.567 7.413-.384c1.321 3.727 2.642 7.454 3.553 11.597-1.463 1.479-2.665 2.433-3.528 3.632-.995 1.382-1.733 2.958-2.505 4.488-.884 1.75-1.684 3.544-2.52 5.319zM197.841 271.334c.54-.35.805-.523 1.15-.976a454.464 454.464 0 0 1 3.46-4.43c.583 1.257.974 2.341 1.56 3.307.872 1.437 1.791 2.864 2.85 4.166 3.197 3.936 6.544 7.752 9.695 11.723 2.813 3.545.684 7.055-.6 10.361-3.63 9.35-16.055 13.611-24.377 8.524-6.462-3.95-9.932-13.748-7.398-20.99.212-.606.567-1.267 1.053-1.657 4.102-3.29 8.25-6.522 12.607-10.028z" transform="matrix(1, 0, 0, 1, 3.552713678800501e-15, 3.552713678800501e-15)" style="fill: rgb(8, 168, 157);"/>
  <path d="M296.442 175.955c4.022 8.15.133 17.087-7.39 19.18-3.206.891-8.63-.08-10.604-2.34-2.802-3.208-4.799-4.472-8.678-3.017-.614.23-1.653-.667-1.694-.685 1.69-3.458 3.44-6.528 4.716-9.784 1.417-3.614 3.892-5.16 7.966-5.005l-.25-3.64c3.259-2.42 10.927.104 15.934 5.29zM163.642 221.841c.52.156.69.158 1.114.161-1.65.92-3.48 2.081-5.476 2.703-3.993 1.244-8.079 2.192-12.25 3.295 1.375 6.045-2.304 8.242-5.951 10.59-3.529 2.27-5.587-.463-8.052-2.035-6.3-4.019-7.309-6.318-5.1-11.784 3.09-7.647 11.858-9.19 16.997-2.825 2.324 2.878 4.608 1.99 7.475 1.247 3.524-.913 7.252-1.04 11.243-1.352z" transform="matrix(1, 0, 0, 1, 3.552713678800501e-15, 3.552713678800501e-15)" style="fill: rgb(8, 168, 157);"/>
  <path d="M250.416 216.918c-2.48.095-4.566.095-7.457.095-1.442-2.024-4.302-4.189-.46-8.252 1.202-1.27-.468-5.256-.79-7.752 2.338 0 4.948 0 7.932-.007 3.847 5.109 2.744 10.453.775 15.916z" transform="matrix(1, 0, 0, 1, 3.552713678800501e-15, 3.552713678800501e-15)" style="fill: rgb(8, 168, 157);"/>
  <path d="M160.003 116.996c.538 3.274-3.168 7.245-6.334 6.753-1.568-.243-3.123-.567-5.613-1.026 2.479 5.912-2.464 5.784-5.047 7.471-.398.26-1.808-1.028-2.884-1.905 3.153-3.295 6.356-6.386 9.771-9.222 1.187-.985 2.898-1.342 4.847-1.806.682.454.948.639 1.277.733.791-.252 1.583-.503 2.923-.877.72-.122.892-.122 1.063-.122 0 0-.006.005-.003.001zM198.598 168.996c.138 1.857-.118 3.726-.403 5.813-3.534.306-7.885-.504-8.565 4.972-.024.195-2.293.388-3.382.092-.93-.252-1.667-1.209-2.87-1.864-.712-2.133-1.045-4.254-1.597-7.769l3.891 3.152c4.414-1.545 8.474-2.965 12.926-4.396z" transform="matrix(1, 0, 0, 1, 3.552713678800501e-15, 3.552713678800501e-15)" style="fill: rgb(8, 168, 157);"/>
  <path d="M173.386 154.015c.465-1.764 1.265-3.557 2.149-5.308.772-1.53 1.51-3.106 2.505-4.488.863-1.199 2.065-2.153 3.518-3.219-.842 3.19-1.808 6.534-3.443 9.511-.829 1.508-2.866 2.35-4.729 3.504zM137.988 134.332c4.797 1.068 6.432 6.2 3.387 11.585-.848-.232-1.311-.547-2.073-1.312-.638-3.177-.977-5.902-1.316-8.628 0-.439 0-.877.002-1.645z" transform="matrix(1, 0, 0, 1, 3.552713678800501e-15, 3.552713678800501e-15)" style="fill: rgb(8, 168, 157);"/>
  <path d="M214.73 167.7c-3.823 4.238-7.087 4.503-9.717.693 3.137-.592 6.287-.784 9.716-.693z" transform="matrix(1, 0, 0, 1, 3.552713678800501e-15, 3.552713678800501e-15)" style="fill: rgb(8, 168, 157);"/>
  <path d="M137.599 136.07c.726 2.633 1.065 5.358 1.408 8.516-.904.53-1.812.626-2.72.722.309-3.049.617-6.097 1.312-9.238z" transform="matrix(1, 0, 0, 1, 3.552713678800501e-15, 3.552713678800501e-15)" style="fill: rgb(8, 168, 157);"/>
  <path d="M177.963 128.655c-2.42.463-4.89.591-7.36.72l-1.685-2.568c1.235-.426 2.47-.852 3.902-1.552 1.827.839 3.459 1.952 5.143 3.4z" transform="matrix(1, 0, 0, 1, 3.552713678800501e-15, 3.552713678800501e-15)" style="fill: rgb(8, 168, 157);"/>
  <path d="M167.833 119.676c-1.002 1.278-2.173 2.238-3.344 3.2-.495-1.355-.991-2.71-1.485-4.475 1.555.045 3.107.501 4.829 1.275z" transform="matrix(1, 0, 0, 1, 3.552713678800501e-15, 3.552713678800501e-15)" style="fill: rgb(8, 168, 157);"/>
  <path d="M176.305 162.961a679.53 679.53 0 0 0 3.725 3.565c-3.872.977-4.767-1.33-5.633-3.684.558-.04 1.116-.08 1.908.119z" transform="matrix(1, 0, 0, 1, 3.552713678800501e-15, 3.552713678800501e-15)" style="fill: rgb(8, 168, 157);"/>
  <path d="M181.735 180.991a45.36 45.36 0 0 1 2.828.76c-.327.653-.655 1.306-1.608 2.107-1.067.15-1.509.15-1.951.151l-.003-2.64c0-.378.49-.378.734-.378z" transform="matrix(1, 0, 0, 1, 3.552713678800501e-15, 3.552713678800501e-15)" style="fill: rgb(8, 168, 157);"/>
  <path d="M180.19 169.803c-.3-.554-.3-1.045-.3-1.536l1.63.426c-.343.39-.686.781-1.33 1.11zM155.907 117.775c-.216.125-.482-.06-.797-.554.216-.124.481.061.797.554zM159.915 116.828c-.08.167-.252.167-.682.164.025-.113.308-.222.682-.164z" transform="matrix(1, 0, 0, 1, 3.552713678800501e-15, 3.552713678800501e-15)" style="fill: rgb(8, 168, 157);"/>
  <path d="M180.782 184.173c.664-.165 1.106-.165 1.88-.167-.32.557-.97 1.115-1.622 1.673-.16-.447-.32-.895-.258-1.506z" transform="matrix(1, 0, 0, 1, 3.552713678800501e-15, 3.552713678800501e-15)" style="fill: rgb(8, 168, 157);"/>
</svg>